<svg width="2496" height="733" viewBox="0 0 2496 733" fill="none" xmlns="http://www.w3.org/2000/svg">
<path d="M2028.97 733L2096.64 733L2196.48 733L2346.24 733C2373.81 733 2396.16 718.082 2396.16 699.682C2396.16 681.282 2373.81 666.364 2346.24 666.364L2246.4 666.364L2246.4 587.884C2246.4 513.365 2197.92 446.434 2121.24 399.818L2446.08 399.818C2473.65 399.818 2496 384.9 2496 366.5C2496 348.1 2473.65 333.182 2446.08 333.182L2121.23 333.182C2197.91 286.56 2246.4 219.621 2246.4 145.1L2246.4 66.6364L2346.24 66.6364C2373.81 66.6364 2396.16 51.718 2396.16 33.3182C2396.16 14.9183 2373.81 -5.34118e-06 2346.24 -6.54622e-06L2196.48 -1.30924e-05L2096.64 -1.74566e-05L2028.98 -2.04143e-05C1917.33 -2.52947e-05 1817.04 32.3603 1747.2 83.5354L1747.2 33.3182C1747.2 14.9183 1724.85 -3.37081e-05 1697.28 -3.49132e-05L1529.78 -4.2235e-05C1418.13 -4.71154e-05 1317.84 32.3603 1248 83.5354L1248 33.3181C1248 14.9183 1225.65 -5.55288e-05 1198.08 -5.67339e-05L1030.58 -6.40558e-05C918.925 -6.89361e-05 818.644 32.3603 748.8 83.5354L748.8 33.3181C748.8 14.9183 726.448 -7.73496e-05 698.88 -7.85546e-05L621.928 -8.19183e-05C361.579 -9.32985e-05 149.76 141.358 149.76 315.124L149.76 333.182L49.9201 333.182C22.352 333.182 7.63368e-05 348.1 7.55325e-05 366.5C7.47282e-05 384.9 22.3519 399.818 49.9201 399.818L149.76 399.818L149.76 417.86C149.76 591.625 361.579 733 621.928 733L698.88 733C726.448 733 748.8 718.082 748.8 699.682L748.8 649.456C818.644 700.636 918.925 733 1030.58 733L1198.08 733C1225.65 733 1248 718.082 1248 699.682L1248 649.457C1317.84 700.636 1418.13 733 1529.78 733L1697.28 733C1724.85 733 1747.2 718.082 1747.2 699.682L1747.2 649.457C1817.04 700.636 1917.33 733 2028.97 733ZM2146.56 587.884L2146.56 666.364L2096.64 666.364L2028.97 666.364C1873.61 666.364 1747.2 581.995 1747.2 478.282L1747.2 399.818L1864.79 399.818C2020.15 399.818 2146.56 484.187 2146.56 587.884ZM636.763 333.182C640.928 330.532 644.99 327.821 648.96 325.041L648.96 333.182L636.763 333.182ZM648.96 399.818L648.96 407.959C644.99 405.179 640.928 402.468 636.763 399.818L648.96 399.818ZM1122.83 333.182C1131.67 327.807 1140.11 322.176 1148.16 316.275L1148.16 333.182L1122.83 333.182ZM1148.16 399.818L1148.16 416.717C1140.11 410.82 1131.68 405.189 1122.84 399.818L1148.16 399.818ZM1622.03 333.182C1630.87 327.807 1639.31 322.176 1647.36 316.275L1647.36 333.182L1622.03 333.182ZM1647.36 399.818L1647.36 416.717C1639.31 410.82 1630.88 405.189 1622.04 399.818L1647.36 399.818ZM2028.98 66.6364L2096.64 66.6364L2146.56 66.6364L2146.56 145.1C2146.56 248.813 2020.15 333.182 1864.79 333.182L1747.2 333.182L1747.2 254.702C1747.2 151.006 1873.61 66.6363 2028.98 66.6364ZM1529.78 66.6363L1647.36 66.6363L1647.36 145.1C1647.36 248.813 1520.95 333.182 1365.59 333.182L1248 333.182L1248 254.702C1248 151.006 1374.41 66.6363 1529.78 66.6363ZM1030.58 66.6363L1148.16 66.6363L1148.16 145.1C1148.16 248.813 1021.75 333.182 866.385 333.182L748.8 333.182L748.8 254.702C748.8 151.005 875.209 66.6363 1030.58 66.6363ZM621.928 66.6363L648.96 66.6363L648.96 159.351C648.96 255.206 532.131 333.182 388.513 333.182L249.6 333.182L249.6 315.124C249.6 178.109 416.618 66.6363 621.928 66.6363ZM621.928 666.364C416.618 666.364 249.6 554.891 249.6 417.86L249.6 399.818L388.513 399.818C532.131 399.818 648.96 477.794 648.96 573.649L648.96 666.364L621.928 666.364ZM1030.58 666.364C875.209 666.364 748.8 581.994 748.8 478.282L748.8 399.818L866.385 399.818C1021.75 399.818 1148.16 484.187 1148.16 587.884L1148.16 666.364L1030.58 666.364ZM1529.78 666.364C1374.41 666.364 1248 581.994 1248 478.282L1248 399.818L1365.59 399.818C1520.95 399.818 1647.36 484.187 1647.36 587.884L1647.36 666.364L1529.78 666.364Z" fill="#F8B803"/>
</svg>
